# xmcd
#
# Track frame offsets:
#	150
#	16548
#	31792
#	57927
#	70415
#	90612
#	96763
#	112599
#	128758
#	140633
#	151257
#	169892
#	181627
#	198027
#	211029
#	235594
#	255436
#	277962
#	301809
#
# Disc length: 4219 seconds
#
# Revision: 0
# Processed by: cddbd v1.5.1PL2 Copyright (c) Steve Scherf et al.
# Submitted via: dBpowerAMP V4.0
#
DISCID=df107913
DTITLE=Der Braunschweiger Spiritualchor - Holy
DYEAR=1900
DGENRE=Gospel
TTITLE0=Who's lookin' for glory?
TTITLE1=Song of Joy
TTITLE2=Lord God, heavenly king
TTITLE3=Lord I don't feel noways tired
TTITLE4=Sometimes I feel like a motherless child
TTITLE5=Kum Ba Yah
TTITLE6=There is a balm in Gilead
TTITLE7=Freedom is coming
TTITLE8=Deep River
TTITLE9=Follow me
TTITLE10=It ain't necessarily so (Instrumentalsolo)
TTITLE11=This world is not my home
TTITLE12=Wade in the water
TTITLE13=Set down servant
TTITLE14=Holy
TTITLE15=Jazz Spirits (Instrumentalsolo)
TTITLE16=Rhythm of life
TTITLE17=O, happy day
TTITLE18=I'm gonna sing
EXTD=
EXTT0=
EXTT1=
EXTT2=
EXTT3=
EXTT4=
EXTT5=
EXTT6=
EXTT7=
EXTT8=
EXTT9=
EXTT10=
EXTT11=
EXTT12=
EXTT13=
EXTT14=
EXTT15=
EXTT16=
EXTT17=
EXTT18=
PLAYORDER=
